<?xml version="1.0" encoding="UTF-8"?>
<svg version="1.1" xmlns="http://www.w3.org/2000/svg" width="2048" height="2048">
<path d="M0 0 C1.20775797 0.00015598 2.41551595 0.00031196 3.65987265 0.00047267 C4.67004203 -0.00144447 4.67004203 -0.00144447 5.70061888 -0.00340034 C7.99026646 -0.00649849 10.27984695 -0.00237854 12.5694924 0.00162334 C14.22211813 0.0008847 15.87474372 -0.00029282 17.52736887 -0.00187286 C22.10989503 -0.00496193 26.69239925 -0.00175071 31.27492379 0.00240542 C36.23329738 0.00581692 41.19166857 0.00346979 46.15004259 0.00182265 C54.86312589 -0.00026266 63.57620237 0.00140478 72.28928488 0.00545603 C85.41382708 0.01153853 98.53836512 0.01182757 111.66290847 0.01099074 C133.65347383 0.00974635 155.64403622 0.01305162 177.6346007 0.0190956 C207.36890047 0.02726247 237.1031952 0.02919759 266.83749681 0.03006667 C338.35544176 0.03532406 409.87338585 0.04928507 481.39132982 0.06217116 C720.94039232 0.09310866 720.94039232 0.09310866 965.32882982 0.12467116 C965.32882982 319.89467116 965.32882982 639.66467116 965.32882982 969.12467116 C645.55882982 969.12467116 325.78882982 969.12467116 -3.67117018 969.12467116 C-3.69179518 809.42529616 -3.71242018 649.72592116 -3.73367018 485.18717116 C-3.74277418 434.65986892 -3.75187819 384.13256667 -3.76125807 332.07413406 C-3.76577467 270.63333816 -3.76577467 270.63333816 -3.7666139 241.9203102 C-3.76761182 220.42551913 -3.77193589 198.93073102 -3.77784361 177.43594084 C-3.78377909 155.54583487 -3.78601087 133.65573088 -3.78461513 111.76562414 C-3.78389451 98.73047828 -3.78591692 85.69533977 -3.79197777 72.66019527 C-3.79570207 64.07210868 -3.79585842 55.48402701 -3.79300552 46.89594009 C-3.7914816 41.99244124 -3.79160553 37.08895657 -3.79605276 32.1854592 C-3.80006546 27.72649182 -3.79957315 23.26754975 -3.79531002 18.80858281 C-3.79458908 17.19555904 -3.7955862 15.58253347 -3.79840546 13.96951201 C-3.80196368 11.79821415 -3.79948944 9.62700874 -3.79536868 7.45571399 C-3.79552466 6.24795602 -3.79568064 5.04019804 -3.79584134 3.79584134 C-3.62813454 0.20260147 -3.59323987 0.1677068 0 0 Z " fill="#FFB907" transform="translate(1082.6711701788008,1078.8753288351)"/>
<path d="M0 0 C159.699375 -0.020625 319.39875 -0.04125 483.9375 -0.0625 C534.46480225 -0.071604 584.99210449 -0.08070801 637.05053711 -0.09008789 C698.49133301 -0.09460449 698.49133301 -0.09460449 727.20436096 -0.09544373 C748.69915203 -0.09644164 770.19394014 -0.10076571 791.68873032 -0.10667343 C813.57883629 -0.11260891 835.46894028 -0.11484069 857.35904703 -0.11344495 C870.39419288 -0.11272433 883.42933139 -0.11474674 896.46447589 -0.1208076 C905.05256249 -0.12453189 913.64064416 -0.12468824 922.22873108 -0.12183534 C927.13222992 -0.12031142 932.03571459 -0.12043535 936.93921196 -0.12488258 C941.39817935 -0.12889528 945.85712141 -0.12840297 950.31608836 -0.12413984 C951.92911213 -0.1234189 953.54213769 -0.12441602 955.15515916 -0.12723528 C957.32645701 -0.1307935 959.49766243 -0.12831926 961.66895717 -0.1241985 C963.48059413 -0.12443247 963.48059413 -0.12443247 965.32882982 -0.12467116 C968 0 968 0 969 1 C969.09840779 3.10845841 969.1244711 5.2202892 969.1241985 7.33104283 C969.12547659 8.00448908 969.12675468 8.67793534 969.1280715 9.37178905 C969.13116966 11.66143664 969.12704971 13.95101713 969.12304783 16.24066257 C969.12378647 17.89328831 969.12496398 19.5459139 969.12654402 21.19853904 C969.12963309 25.78106521 969.12642187 30.36356943 969.12226575 34.94609397 C969.11885425 39.90446756 969.12120137 44.86283875 969.12284851 49.82121277 C969.12493383 58.53429606 969.12326639 67.24737255 969.11921513 75.96045506 C969.11313264 89.08499725 969.11284359 102.2095353 969.11368043 115.33407865 C969.11492482 137.32464401 969.11161954 159.3152064 969.10557556 181.30577087 C969.0974087 211.04007065 969.09547358 240.77436538 969.09460449 270.50866699 C969.0893471 342.02661194 969.0753861 413.54455602 969.0625 485.0625 C969.041875 644.761875 969.02125 804.46125 969 969 C649.23 969 329.46 969 0 969 C0 649.23 0 329.46 0 0 Z " fill="#04A6EF" transform="translate(0,1079)"/>
<path d="M0 0 C319.77 0 639.54 0 969 0 C969 319.77 969 639.54 969 969 C809.300625 969.020625 649.60125 969.04125 485.0625 969.0625 C434.53519775 969.071604 384.00789551 969.08070801 331.94946289 969.09008789 C270.50866699 969.09460449 270.50866699 969.09460449 241.79563904 969.09544373 C220.30084797 969.09644164 198.80605986 969.10076571 177.31126968 969.10667343 C155.42116371 969.11260891 133.53105972 969.11484069 111.64095297 969.11344495 C98.60580712 969.11272433 85.57066861 969.11474674 72.53552411 969.1208076 C63.94743751 969.12453189 55.35935584 969.12468824 46.77126892 969.12183534 C41.86777008 969.12031142 36.96428541 969.12043535 32.06078804 969.12488258 C27.60182065 969.12889528 23.14287859 969.12840297 18.68391164 969.12413984 C17.07088787 969.1234189 15.45786231 969.12441602 13.84484084 969.12723528 C11.67354299 969.1307935 9.50233757 969.12831926 7.33104283 969.1241985 C5.51940587 969.12443247 5.51940587 969.12443247 3.67117018 969.12467116 C1 969 1 969 0 968 C-0.09840779 965.89154159 -0.1244711 963.7797108 -0.1241985 961.66895717 C-0.12547659 960.99551092 -0.12675468 960.32206466 -0.1280715 959.62821095 C-0.13116966 957.33856336 -0.12704971 955.04898287 -0.12304783 952.75933743 C-0.12378647 951.10671169 -0.12496398 949.4540861 -0.12654402 947.80146096 C-0.12963309 943.21893479 -0.12642187 938.63643057 -0.12226575 934.05390603 C-0.11885425 929.09553244 -0.12120137 924.13716125 -0.12284851 919.17878723 C-0.12493383 910.46570394 -0.12326639 901.75262745 -0.11921513 893.03954494 C-0.11313264 879.91500275 -0.11284359 866.7904647 -0.11368043 853.66592135 C-0.11492482 831.67535599 -0.11161954 809.6847936 -0.10557556 787.69422913 C-0.0974087 757.95992935 -0.09547358 728.22563462 -0.09460449 698.49133301 C-0.0893471 626.97338806 -0.0753861 555.45544398 -0.0625 483.9375 C-0.041875 324.238125 -0.02125 164.53875 0 0 Z " fill="#80BB05" transform="translate(1079,0)"/>
<path d="M0 0 C319.77 0 639.54 0 969 0 C969.020625 159.699375 969.04125 319.39875 969.0625 483.9375 C969.071604 534.46480225 969.08070801 584.99210449 969.09008789 637.05053711 C969.09460449 698.49133301 969.09460449 698.49133301 969.09544373 727.20436096 C969.09644164 748.69915203 969.10076571 770.19394014 969.10667343 791.68873032 C969.11260891 813.57883629 969.11484069 835.46894028 969.11344495 857.35904703 C969.11272433 870.39419288 969.11474674 883.42933139 969.1208076 896.46447589 C969.12453189 905.05256249 969.12468824 913.64064416 969.12183534 922.22873108 C969.12031142 927.13222992 969.12043535 932.03571459 969.12488258 936.93921196 C969.12889528 941.39817935 969.12840297 945.85712141 969.12413984 950.31608836 C969.1234189 951.92911213 969.12441602 953.54213769 969.12723528 955.15515916 C969.1307935 957.32645701 969.12831926 959.49766243 969.1241985 961.66895717 C969.12435448 962.87671515 969.12451046 964.08447312 969.12467116 965.32882982 C969 968 969 968 968 969 C965.89154159 969.09840779 963.7797108 969.1244711 961.66895717 969.1241985 C960.99551092 969.12547659 960.32206466 969.12675468 959.62821095 969.1280715 C957.33856336 969.13116966 955.04898287 969.12704971 952.75933743 969.12304783 C951.10671169 969.12378647 949.4540861 969.12496398 947.80146096 969.12654402 C943.21893479 969.12963309 938.63643057 969.12642187 934.05390603 969.12226575 C929.09553244 969.11885425 924.13716125 969.12120137 919.17878723 969.12284851 C910.46570394 969.12493383 901.75262745 969.12326639 893.03954494 969.11921513 C879.91500275 969.11313264 866.7904647 969.11284359 853.66592135 969.11368043 C831.67535599 969.11492482 809.6847936 969.11161954 787.69422913 969.10557556 C757.95992935 969.0974087 728.22563462 969.09547358 698.49133301 969.09460449 C626.97338806 969.0893471 555.45544398 969.0753861 483.9375 969.0625 C244.3884375 969.0315625 244.3884375 969.0315625 0 969 C0 649.23 0 329.46 0 0 Z " fill="#F25324" transform="translate(0,0)"/>
</svg>
