<?xml version="1.0" encoding="UTF-8"?>
<svg version="1.1" xmlns="http://www.w3.org/2000/svg" width="512" height="512">
<path d="M0 0 C0.99319539 -0.00523668 1.98639079 -0.01047336 3.00968301 -0.01586872 C6.32960632 -0.03084101 9.64937512 -0.03157328 12.96932983 -0.03224182 C15.35318257 -0.03986525 17.73703285 -0.04829306 20.12088013 -0.0574646 C26.59220745 -0.07940045 33.06350051 -0.08822971 39.53485918 -0.09329104 C43.58086539 -0.09655453 47.62686215 -0.10308098 51.67286301 -0.11029243 C62.89018 -0.12985241 74.10748824 -0.14625985 85.32482338 -0.14916897 C86.04190437 -0.14935654 86.75898536 -0.14954411 87.49779608 -0.14973736 C88.951298 -0.1501036 90.40479992 -0.15046729 91.85830183 -0.15082847 C92.57975553 -0.15101128 93.30120922 -0.1511941 94.04452515 -0.15138245 C94.7668666 -0.151563 95.48920806 -0.15174354 96.23343866 -0.15192956 C107.92870695 -0.15546856 119.62379081 -0.18247634 131.31899519 -0.21988034 C143.34601139 -0.25803551 155.37293626 -0.27732698 167.40001428 -0.27762848 C174.1448266 -0.27821147 180.88941894 -0.28660059 187.63417435 -0.31562614 C193.98232285 -0.34185637 200.33003693 -0.3439838 206.67821503 -0.3279705 C209.00130284 -0.3261599 211.32441592 -0.33281137 213.64744949 -0.34878922 C231.79053501 -0.46591664 244.55766407 1.32620464 258.13485718 14.33665466 C270.66731236 27.40588167 271.29636248 43.19622365 271.20956421 60.41575623 C271.20899881 62.0037129 271.20931916 63.59167009 271.21044922 65.17962646 C271.21101871 69.45361976 271.19933036 73.72749884 271.1853013 78.0014658 C271.17272609 82.48174001 271.17161812 86.96201738 271.16925049 91.44230652 C271.16305556 99.90988968 271.14667185 108.37742067 271.12655151 116.84498096 C271.10413038 126.49198491 271.09318351 136.13899147 271.08316064 145.78601503 C271.06230369 165.61542393 271.02716668 185.444786 270.98251343 205.27415466 C271.94156586 205.33709717 272.90061829 205.40003967 273.88873291 205.46488953 C275.14799591 205.55051147 276.40725891 205.63613342 277.7046814 205.72434998 C278.95248383 205.80791748 280.20028625 205.89148499 281.48590088 205.97758484 C305.55652987 208.01916712 327.64402014 221.11078182 343.29501343 239.08665466 C360.08168893 260.22643889 367.19424287 285.67165957 364.29501343 312.46165466 C360.70297399 337.05714693 348.27083912 360.43101495 328.24081421 375.59251404 C324.28383106 378.38415105 320.17853005 380.8600763 315.98251343 383.27415466 C315.15364624 383.76528748 314.32477905 384.25642029 313.47079468 384.76243591 C302.6010115 390.72328475 289.13023317 394.34445912 276.78036499 394.2966156 C275.15351776 394.2917514 275.15351776 394.2917514 273.49380493 394.28678894 C272.66507874 394.28261963 271.83635254 394.27845032 270.98251343 394.27415466 C270.98695465 395.17458496 270.99139587 396.07501526 270.99597168 397.00273132 C271.03622972 405.53434526 271.06658937 414.06592679 271.08613777 422.59761429 C271.09652599 426.98267455 271.1105933 431.3676556 271.13339233 435.75267029 C271.15529927 439.9931744 271.16711925 444.23360285 271.17226791 448.47415924 C271.17593191 450.08308349 271.18308566 451.69200411 271.19397354 453.30089569 C271.31160344 471.42183049 269.54565116 486.36702937 256.46688843 500.01634216 C246.51685118 509.05898607 235.92767867 512.74979749 222.63549805 512.66183472 C221.64311736 512.66722025 220.65073668 512.67260579 219.62828386 512.67815453 C216.32907638 512.69237208 213.03027364 512.68534563 209.73104858 512.6782074 C207.35498229 512.68391421 204.97891875 512.69087967 202.6028595 512.69900513 C196.16686111 512.71691751 189.7309992 512.71577165 183.29498339 512.71006274 C179.27024026 512.70699471 175.2455165 512.70996592 171.2207756 512.71454048 C170.5511824 512.7152889 169.88158919 512.71603733 169.19170528 512.71680843 C167.83111839 512.71834002 166.4705315 512.71987836 165.10994463 512.72142339 C152.37027304 512.73512963 139.63066297 512.72972408 126.89099281 512.71823818 C115.25669324 512.70830875 103.62255278 512.72124473 91.98827775 512.74517237 C80.01879535 512.76960241 68.04938693 512.77916161 56.07988012 512.77251965 C49.36927795 512.76903595 42.65881602 512.77154117 35.94823074 512.78877068 C29.63618971 512.80427021 23.32445175 512.80025047 17.01242256 512.78146553 C14.70182286 512.77778798 12.39120055 512.78086364 10.08062172 512.79135132 C-7.48178517 512.86495342 -20.86473086 511.819291 -34.24014282 499.17259216 C-43.11624145 489.78217754 -47.35072863 479.18989586 -47.25799561 466.3840332 C-47.25970446 465.51233913 -47.2614133 464.64064505 -47.26317394 463.74253601 C-47.26645668 460.83445235 -47.25548519 457.92660168 -47.24453735 455.01853943 C-47.24397298 452.92886358 -47.24429032 450.83918734 -47.24542236 448.74951172 C-47.24599584 443.08478281 -47.2342422 437.42013872 -47.22027445 431.75542951 C-47.20776637 425.83238992 -47.20659653 419.90934836 -47.20422363 413.98629761 C-47.1980091 402.77381674 -47.18159861 391.56137491 -47.16152465 380.34891123 C-47.13916485 367.58237088 -47.12817201 354.81582866 -47.11813378 342.04927361 C-47.09723239 315.79087899 -47.06205689 289.53251902 -47.01748657 263.27415466 C-47.84496902 263.28303711 -48.67245148 263.29191956 -49.52500916 263.30107117 C-57.36522967 263.38158536 -65.20530914 263.44230481 -73.0458498 263.48140335 C-77.0757203 263.5021809 -81.10524605 263.53031563 -85.13491821 263.57591248 C-89.03179955 263.61972528 -92.9283516 263.64336549 -96.82546043 263.65366364 C-98.30407067 263.66099207 -99.78266513 263.67530088 -101.26113319 263.69707489 C-111.34605336 263.83954407 -121.01466071 263.29091784 -129.39248657 257.02415466 C-138.50342159 247.4793656 -139.32780297 237.67980495 -139.31826782 224.93821716 C-139.32255295 223.66368683 -139.32683807 222.38915649 -139.33125305 221.07600403 C-139.33697972 218.38800642 -139.33845186 215.7003949 -139.3331604 213.01243591 C-139.32737345 209.59438144 -139.34429574 206.17687022 -139.36750507 202.75890541 C-139.38591503 199.46451431 -139.38205444 196.17015034 -139.38076782 192.87571716 C-139.38997757 191.66187347 -139.39918732 190.44802979 -139.40867615 189.19740295 C-139.35566972 179.37145941 -138.2138762 169.57768657 -131.01748657 162.27415466 C-121.02396188 154.00035697 -111.00293405 153.98697225 -98.57998657 154.07884216 C-97.08926586 154.0825782 -95.59854267 154.08542238 -94.1078186 154.0874176 C-90.20831369 154.09500764 -86.30896077 154.11461562 -82.40951538 154.13682556 C-78.4207871 154.15738444 -74.43203396 154.16644067 -70.44326782 154.17649841 C-62.63460523 154.19786649 -54.8260673 154.2319456 -47.01748657 154.27415466 C-47.02301733 153.38626692 -47.02301733 153.38626692 -47.02865982 152.48044205 C-47.11726818 138.03075168 -47.18332071 123.5810857 -47.22473526 109.13118362 C-47.24529902 102.14309641 -47.27329995 95.15519132 -47.31924438 88.16722107 C-47.36360126 81.41745541 -47.38665643 74.66787868 -47.39699554 67.91797638 C-47.40435926 65.34890016 -47.41873859 62.77983371 -47.4404068 60.21083832 C-47.46964433 56.59923357 -47.47343395 52.98839867 -47.47158813 49.37669373 C-47.48596924 48.32580063 -47.50035034 47.27490753 -47.51516724 46.19216919 C-47.44346467 33.1397419 -42.84888653 22.49918547 -33.91592407 13.05149841 C-24.07710174 3.75155151 -13.31996381 -0.03496103 0 0 Z " fill="#57A2FE" transform="translate(143.01748657226563,-0.2741546630859375)"/>
<path d="M0 0 C1.8344206 0.00291644 1.8344206 0.00291644 3.70590019 0.0058918 C7.09912802 0.01330495 10.49209139 0.02977299 13.88525176 0.0501101 C17.56844241 0.0700205 21.25166171 0.07842363 24.93489075 0.08818054 C31.41099351 0.10678014 37.88703726 0.13263241 44.36309814 0.16229248 C54.22614326 0.20691958 64.08918788 0.23165392 73.95230651 0.25329804 C92.34121096 0.29397325 110.72992289 0.35832039 129.11868095 0.44204903 C139.16504893 0.4874997 149.21137281 0.5270041 159.2578125 0.55273438 C168.22422032 0.57570119 177.19051792 0.60898329 186.15683824 0.65500039 C190.84651509 0.67874934 195.53608507 0.69760313 200.22582054 0.70391273 C204.58107969 0.70995119 208.93605311 0.72990472 213.29120636 0.76057434 C214.87947673 0.76933977 216.46778439 0.77308025 218.05607796 0.77130699 C229.11632325 0.7628543 237.53349898 1.29436994 245.9753418 9.10473633 C251.44843653 15.39645634 253.90011862 22.6901548 253.98046875 30.90185547 C253.99330399 32.0472731 254.00613922 33.19269073 254.0193634 34.37281799 C254.0304438 36.22591835 254.0304438 36.22591835 254.04174805 38.11645508 C254.04981979 39.39427353 254.05789154 40.67209198 254.06620789 41.9886322 C254.08121315 44.69619613 254.09105923 47.40373409 254.09863281 50.11132812 C254.10964476 53.55190357 254.14399128 56.9918229 254.18380451 60.43216801 C254.21651561 63.74356821 254.22077111 67.05490599 254.22924805 70.36645508 C254.24675613 71.5876857 254.26426422 72.80891632 254.28230286 74.06715393 C254.25554683 84.74446567 252.19725591 93.66811409 244.6706543 101.55004883 C239.44002837 106.18976722 234.08829145 108.33894945 227.12670898 108.31982422 C225.74573029 108.31971092 225.74573029 108.31971092 224.33685303 108.31959534 C223.35130432 108.31443405 222.36575562 108.30927277 221.3503418 108.30395508 C220.33498352 108.30254013 219.31962524 108.30112518 218.27349854 108.29966736 C215.03345787 108.29407399 211.79348654 108.28152268 208.5534668 108.26879883 C206.35555113 108.26378297 204.15763438 108.25922021 201.9597168 108.25512695 C196.57425199 108.24495802 191.18893692 108.2253812 185.8034668 108.20629883 C185.8034668 120.08629883 185.8034668 131.96629883 185.8034668 144.20629883 C180.18179126 141.95762862 180.18179126 141.95762862 177.4831543 139.87817383 C176.87479736 139.41499756 176.26644043 138.95182129 175.63964844 138.47460938 C174.66886353 137.72304565 174.66886353 137.72304565 173.6784668 136.95629883 C172.25859049 135.87335362 170.83798539 134.79136347 169.41674805 133.71020508 C168.66989746 133.14060059 167.92304688 132.57099609 167.15356445 131.98413086 C162.32387914 128.33050854 157.42684116 124.76729474 152.53930664 121.19165039 C151.41903076 120.36938965 151.41903076 120.36938965 150.27612305 119.53051758 C149.21872767 118.76967723 149.21872767 118.76967723 148.13997078 117.99346638 C145.8034668 116.20629883 145.8034668 116.20629883 143.91180229 114.37612438 C137.22228676 108.1692423 130.94388615 108.26765504 122.18676758 108.47509766 C120.72548879 108.48363491 119.26418861 108.48900479 117.80288696 108.49147034 C114.67093326 108.50337665 111.54028072 108.53721652 108.40872574 108.58844948 C103.44828519 108.66923534 98.48831022 108.69901388 93.52731323 108.72209167 C84.781895 108.76922752 76.03731537 108.8592894 67.2923584 108.95880127 C54.13765079 109.10803733 40.98268172 109.2219094 27.8273505 109.29796046 C22.90507541 109.32800023 17.98366381 109.37974856 13.06179452 109.44930804 C9.98899334 109.48896581 6.91621982 109.51185079 3.84322739 109.53067589 C2.42870903 109.5428589 1.01422888 109.56197651 -0.40008545 109.58891296 C-10.18508995 109.77065911 -19.48218385 109.02265253 -27.5715332 102.95629883 C-36.68246822 93.41150976 -37.5068496 83.61194912 -37.49731445 70.87036133 C-37.50159958 69.59583099 -37.5058847 68.32130066 -37.51029968 67.00814819 C-37.51602635 64.32015059 -37.51749849 61.63253907 -37.51220703 58.94458008 C-37.50642009 55.52652561 -37.52334237 52.10901439 -37.5465517 48.69104958 C-37.56496167 45.39665847 -37.56110107 42.1022945 -37.55981445 38.80786133 C-37.5690242 37.59401764 -37.57823395 36.38017395 -37.58772278 35.12954712 C-37.53471635 25.30360358 -36.39292283 15.50983074 -29.1965332 8.20629883 C-20.11891417 0.69079397 -11.41226322 -0.09408417 0 0 Z " fill="#FEB957" transform="translate(41.196533203125,153.793701171875)"/>
<path d="M0 0 C19.29451525 17.92100738 28.31829954 41.27946808 30.3515625 67.06640625 C31.0129152 93.24819274 20.61868076 117.62338345 2.90649414 136.5949707 C-3.61048663 143.32786588 -10.79835271 148.28736874 -18.89453125 152.9453125 C-19.72339844 153.43644531 -20.55226563 153.92757812 -21.40625 154.43359375 C-41.42729329 165.41287555 -67.19311897 167.21582107 -88.89453125 160.9453125 C-89.94125 160.69007813 -90.98796875 160.43484375 -92.06640625 160.171875 C-105.43493002 156.61780405 -117.67723123 149.18621525 -127.89453125 139.9453125 C-128.71179688 139.22085938 -129.5290625 138.49640625 -130.37109375 137.75 C-141.42804075 127.37769368 -148.52677312 114.98127463 -153.89453125 100.9453125 C-154.24257813 100.10871094 -154.590625 99.27210938 -154.94921875 98.41015625 C-162.71658484 78.15723061 -160.34671989 54.37892582 -152.51953125 34.5703125 C-148.06696067 24.66368131 -142.89626248 16.25100987 -135.89453125 7.9453125 C-135.22421875 7.09195313 -134.55390625 6.23859375 -133.86328125 5.359375 C-119.87074254 -11.7981427 -95.87355576 -21.94194895 -74.45703125 -24.3671875 C-46.92366447 -27.03241303 -20.67454092 -18.47253724 0 0 Z " fill="#FEE5EA" transform="translate(477.89453125,230.0546875)"/>
<path d="M0 0 C0.99319539 -0.00523668 1.98639079 -0.01047336 3.00968301 -0.01586872 C6.32960632 -0.03084101 9.64937512 -0.03157328 12.96932983 -0.03224182 C15.35318257 -0.03986525 17.73703285 -0.04829306 20.12088013 -0.0574646 C26.59220745 -0.07940045 33.06350051 -0.08822971 39.53485918 -0.09329104 C43.58086539 -0.09655453 47.62686215 -0.10308098 51.67286301 -0.11029243 C62.89018 -0.12985241 74.10748824 -0.14625985 85.32482338 -0.14916897 C86.04190437 -0.14935654 86.75898536 -0.14954411 87.49779608 -0.14973736 C88.951298 -0.1501036 90.40479992 -0.15046729 91.85830183 -0.15082847 C92.57975553 -0.15101128 93.30120922 -0.1511941 94.04452515 -0.15138245 C94.7668666 -0.151563 95.48920806 -0.15174354 96.23343866 -0.15192956 C107.92870695 -0.15546856 119.62379081 -0.18247634 131.31899519 -0.21988034 C143.34601139 -0.25803551 155.37293626 -0.27732698 167.40001428 -0.27762848 C174.1448266 -0.27821147 180.88941894 -0.28660059 187.63417435 -0.31562614 C193.98232285 -0.34185637 200.33003693 -0.3439838 206.67821503 -0.3279705 C209.00130284 -0.3261599 211.32441592 -0.33281137 213.64744949 -0.34878922 C231.79053501 -0.46591664 244.55766407 1.32620464 258.13485718 14.33665466 C273.33270343 30.18543288 269.98251343 45.79896871 269.98251343 68.27415466 C165.37251343 68.27415466 60.76251343 68.27415466 -47.01748657 68.27415466 C-47.01748657 26.90798366 -47.01748657 26.90798366 -33.91592407 13.05149841 C-24.07710174 3.75155151 -13.31996381 -0.03496103 0 0 Z " fill="#396482" transform="translate(143.01748657226563,-0.2741546630859375)"/>
<path d="M0 0 C104.61 0 209.22 0 317 0 C317 41.65 317 41.65 303.125 55.9296875 C293.61718107 64.86243673 282.79930182 68.31061278 270.01374817 68.26742554 C269.02393076 68.27195665 268.03411335 68.27648776 267.01430148 68.28115618 C263.70585696 68.29379104 260.39757726 68.29218037 257.08911133 68.29052734 C254.71348866 68.29651321 252.33786793 68.3033189 249.96224976 68.31088257 C244.18327192 68.32671126 238.40434388 68.33299079 232.62534545 68.33410732 C227.92452238 68.33505937 223.22371273 68.33917749 218.52289391 68.34550858 C205.17801269 68.36311411 191.83316359 68.37234871 178.48827068 68.37084763 C177.41017655 68.37072776 177.41017655 68.37072776 176.31030273 68.37060547 C175.59068958 68.37052371 174.87107643 68.37044195 174.12965681 68.37035771 C162.47577255 68.36954536 150.8220177 68.38867172 139.16817085 68.4168822 C127.1852306 68.44565899 115.20235336 68.45941981 103.2193777 68.45769465 C96.49866126 68.45703232 89.77810076 68.46284773 83.0574131 68.48405075 C76.73311333 68.5034584 70.40909931 68.50353998 64.08478928 68.48901749 C61.76934961 68.48693135 59.45389194 68.49161851 57.13848305 68.5037384 C39.55660198 68.58977649 26.16860407 67.56012125 12.77734375 54.8984375 C-2.51805161 38.71676689 0 23.00305042 0 0 Z " fill="#3A6584" transform="translate(96,444)"/>
<path d="M0 0 C19.29451525 17.92100738 28.31829954 41.27946808 30.3515625 67.06640625 C31.0129152 93.24819274 20.61868076 117.62338345 2.90649414 136.5949707 C-3.61048663 143.32786588 -10.79835271 148.28736874 -18.89453125 152.9453125 C-19.72339844 153.43644531 -20.55226563 153.92757812 -21.40625 154.43359375 C-41.42729329 165.41287555 -67.19311897 167.21582107 -88.89453125 160.9453125 C-89.94125 160.69007813 -90.98796875 160.43484375 -92.06640625 160.171875 C-105.43493002 156.61780405 -117.67723123 149.18621525 -127.89453125 139.9453125 C-128.71179688 139.22085938 -129.5290625 138.49640625 -130.37109375 137.75 C-141.42804075 127.37769368 -148.52677312 114.98127463 -153.89453125 100.9453125 C-154.24257813 100.10871094 -154.590625 99.27210938 -154.94921875 98.41015625 C-162.71658484 78.15723061 -160.34671989 54.37892582 -152.51953125 34.5703125 C-148.06696067 24.66368131 -142.89626248 16.25100987 -135.89453125 7.9453125 C-135.22421875 7.09195313 -134.55390625 6.23859375 -133.86328125 5.359375 C-119.87074254 -11.7981427 -95.87355576 -21.94194895 -74.45703125 -24.3671875 C-46.92366447 -27.03241303 -20.67454092 -18.47253724 0 0 Z M-119.859375 26.375 C-133.55594241 43.67316 -135.79731054 63.23627751 -133.5 84.6171875 C-129.75486931 102.11057215 -118.44994092 117.78563114 -104.03125 127.9765625 C-91.68688938 135.7244551 -79.6652063 139.16959142 -65.20703125 139.2578125 C-64.32789063 139.26345215 -63.44875 139.2690918 -62.54296875 139.27490234 C-44.23397151 139.07185143 -27.97178912 131.5315322 -14.64453125 119.2578125 C-5.883977 109.90457805 -0.47949974 99.14625567 3.10546875 86.9453125 C3.35039062 86.16929687 3.5953125 85.39328125 3.84765625 84.59375 C8.40162798 67.93744243 4.26426799 50.31815283 -3.78515625 35.546875 C-6.40480725 30.96605153 -9.34624189 26.85471096 -12.89453125 22.9453125 C-13.4978125 22.26210937 -14.10109375 21.57890625 -14.72265625 20.875 C-27.07224435 7.67198508 -45.15831424 0.25119171 -63.1015625 -0.45947266 C-85.65766181 -0.79984623 -105.25748847 9.53261236 -119.859375 26.375 Z " fill="#FD5977" transform="translate(477.89453125,230.0546875)"/>
<path d="M0 0 C19.29451525 17.92100738 28.31829954 41.27946808 30.3515625 67.06640625 C31.0129152 93.24819274 20.61868076 117.62338345 2.90649414 136.5949707 C-3.61048663 143.32786588 -10.79835271 148.28736874 -18.89453125 152.9453125 C-19.72339844 153.43644531 -20.55226563 153.92757812 -21.40625 154.43359375 C-34.19881061 161.44886892 -48.79855462 164.12358221 -63.20703125 164.1328125 C-64.20154297 164.14505859 -65.19605469 164.15730469 -66.22070312 164.16992188 C-72.42933778 164.18215162 -77.88629128 163.52052982 -83.89453125 161.9453125 C-82.3239568 158.80416359 -79.15735846 158.35938815 -76.01953125 157.1953125 C-64.08072262 152.56826266 -53.12810746 146.80224633 -44.39453125 137.1953125 C-41.91235856 134.96135708 -40.46623086 134.2979739 -37.39453125 133.1953125 C-21.89706838 127.47352875 -10.48833054 115.27884075 -2.89453125 100.9453125 C-0.81618193 96.4154854 0.70179757 91.72251275 2.10546875 86.9453125 C2.47285156 85.78128906 2.47285156 85.78128906 2.84765625 84.59375 C7.40145224 67.93808522 3.26304722 50.32333525 -4.78125 35.55078125 C-7.39892123 30.97253012 -10.35597919 26.85805627 -13.89453125 22.9453125 C-14.42433594 22.33558594 -14.95414062 21.72585937 -15.5 21.09765625 C-22.13060818 13.93155952 -30.44316175 9.02202697 -39.703125 6.0625 C-42.61067767 4.58021825 -43.91262631 2.51837838 -45.89453125 -0.0546875 C-57.0799754 -9.97553526 -70.7464821 -16.49853608 -84.89453125 -21.0546875 C-84.56453125 -21.7146875 -84.23453125 -22.3746875 -83.89453125 -23.0546875 C-80.99565445 -23.57429749 -78.19402154 -23.95650176 -75.26953125 -24.2421875 C-74.4086792 -24.32678223 -73.54782715 -24.41137695 -72.66088867 -24.49853516 C-45.82596254 -26.85835926 -20.08651771 -17.9471432 0 0 Z " fill="#E84362" transform="translate(477.89453125,230.0546875)"/>
<path d="M0 0 C0.33 0 0.66 0 1 0 C1.02332708 20.97451986 1.04097824 41.94903759 1.05181217 62.92356777 C1.05697554 72.66169607 1.064019 82.39981632 1.07543945 92.13793945 C1.08538506 100.62249493 1.09185313 109.10704458 1.09408849 117.59160572 C1.09539581 122.0869866 1.09848298 126.58235081 1.10573006 131.07772636 C1.11248833 135.30391046 1.11461736 139.53007093 1.11310768 143.75625992 C1.1133841 145.31195898 1.11539036 146.86765879 1.11920547 148.4233532 C1.12413973 150.53811934 1.1229993 152.65279487 1.12025452 154.76756287 C1.12163721 156.54708422 1.12163721 156.54708422 1.12304783 158.3625555 C1 161 1 161 0 162 C-3.77309461 162.41923273 -7.54454284 162.76695332 -11.328125 163.07421875 C-18.02620457 163.69754161 -23.27494305 165.16589356 -30 167 C-29.67 120.14 -29.34 73.28 -29 25 C-124.04 25 -219.08 25 -317 25 C-317 24.67 -317 24.34 -317 24 C-212.39 24 -107.78 24 0 24 C0 16.08 0 8.16 0 0 Z " fill="#3482DF" transform="translate(413,44)"/>
<path d="M0 0 C3.33316277 -0.08811914 6.66602047 -0.14076197 10 -0.1875 C10.93457031 -0.21263672 11.86914062 -0.23777344 12.83203125 -0.26367188 C21.88985436 -0.35868401 28.41813856 1.64990182 35.171875 7.8984375 C40.64496973 14.19015751 43.09665183 21.48385598 43.17700195 29.69555664 C43.19625481 31.41368309 43.19625481 31.41368309 43.21589661 33.16651917 C43.22328354 34.4019194 43.23067047 35.63731964 43.23828125 36.91015625 C43.246353 38.1879747 43.25442474 39.46579315 43.26274109 40.78233337 C43.27774636 43.4898973 43.28759243 46.19743526 43.29516602 48.9050293 C43.30617796 52.34560475 43.34052448 55.78552407 43.38033772 59.22586918 C43.41304881 62.53726938 43.41730431 65.84860716 43.42578125 69.16015625 C43.44328934 70.38138687 43.46079742 71.60261749 43.47883606 72.8608551 C43.45208003 83.53816684 41.39378911 92.46181527 33.8671875 100.34375 C28.69012342 104.93595747 23.35640518 107.14430003 16.453125 107.09765625 C15.60878906 107.09443359 14.76445312 107.09121094 13.89453125 107.08789062 C12.58548828 107.07532227 12.58548828 107.07532227 11.25 107.0625 C10.36183594 107.05798828 9.47367187 107.05347656 8.55859375 107.04882812 C6.37232671 107.037074 4.18619821 107.02064249 2 107 C3.99146684 105.00853316 5.21899622 104.39651519 7.75 103.3125 C13.81917276 100.3384952 17.74657185 95.61830686 20.35426331 89.38923645 C21.84545314 83.87180939 21.40407811 78.01961055 21.36328125 72.34375 C21.36276175 70.91320801 21.36328293 69.48266531 21.36479187 68.05212402 C21.36470248 65.0631231 21.35434107 62.07439375 21.33618164 59.08544922 C21.3134956 55.26920952 21.31295396 51.45336592 21.31969929 47.63707733 C21.3230533 44.68581674 21.31638232 41.73464515 21.30657005 38.78340149 C21.30274242 37.37690192 21.30155964 35.97039242 21.3031559 34.56388855 C21.30353001 32.59269972 21.28935738 30.62152468 21.2746582 28.65039062 C21.27005081 27.53233032 21.26544342 26.41427002 21.26069641 25.2623291 C20.66666426 17.82866958 18.21173615 12.24479156 13 7 C10.12558213 5.02726261 7.15178455 3.47847348 4 2 C2.66563034 1.33541003 1.33214586 0.66903635 0 0 Z " fill="#E99C30" transform="translate(252,155)"/>
<path d="M0 0 C3.0625 0.625 3.0625 0.625 5.875 2.3125 C9.22668565 7.3879097 8.96646281 12.66196374 9.0625 18.625 C9.70316406 18.18027344 10.34382813 17.73554688 11.00390625 17.27734375 C18.09132976 12.6404154 18.09132976 12.6404154 23 12.5625 C27.62080389 14.16563604 27.62080389 14.16563604 29.0625 16.625 C29.5625 19.5 29.5625 19.5 29.0625 22.625 C25.56621055 27.10462086 20.90846236 29.79919068 16.0625 32.625 C16.83335937 33.02332031 17.60421875 33.42164063 18.3984375 33.83203125 C19.40132812 34.36183594 20.40421875 34.89164063 21.4375 35.4375 C22.43523437 35.95957031 23.43296875 36.48164063 24.4609375 37.01953125 C27.0625 38.625 27.0625 38.625 29.0625 41.625 C28.9309799 45.30756285 28.79579557 47.72248237 26.4375 50.625 C22.85777903 52.13225093 20.81520837 51.60931695 17.0625 50.625 C13.95967247 49.11805351 11.0004192 47.43038799 8.0625 45.625 C8.10890625 46.50542969 8.1553125 47.38585937 8.203125 48.29296875 C8.25726563 50.03513672 8.25726563 50.03513672 8.3125 51.8125 C8.35890625 52.96105469 8.4053125 54.10960937 8.453125 55.29296875 C7.98471824 59.28847841 6.94166134 60.86325127 4.0625 63.625 C0.5625 64.25 0.5625 64.25 -2.9375 63.625 C-5.81666134 60.86325127 -6.85971824 59.28847841 -7.328125 55.29296875 C-7.28171875 54.14441406 -7.2353125 52.99585938 -7.1875 51.8125 C-7.15140625 50.65105469 -7.1153125 49.48960937 -7.078125 48.29296875 C-7.03171875 47.41253906 -6.9853125 46.53210938 -6.9375 45.625 C-7.66195312 46.058125 -8.38640625 46.49125 -9.1328125 46.9375 C-10.09960938 47.494375 -11.06640625 48.05125 -12.0625 48.625 C-13.01382813 49.181875 -13.96515625 49.73875 -14.9453125 50.3125 C-18.25401387 51.76383637 -20.36434793 52.04153318 -23.9375 51.625 C-26.52471535 49.24203849 -27.70950076 47.53699697 -28.5625 44.125 C-27.45403877 39.69115509 -23.67451851 37.69286766 -19.98046875 35.421875 C-18.31655058 34.45944575 -16.62886351 33.5383363 -14.9375 32.625 C-15.70835937 32.07070312 -16.47921875 31.51640625 -17.2734375 30.9453125 C-18.27632812 30.22085938 -19.27921875 29.49640625 -20.3125 28.75 C-21.31023437 28.03070313 -22.30796875 27.31140625 -23.3359375 26.5703125 C-25.9375 24.625 -25.9375 24.625 -27.9375 22.625 C-27.8043165 18.96245362 -27.66075007 16.51515393 -25.3125 13.625 C-21.73277903 12.11774907 -19.69020837 12.64068305 -15.9375 13.625 C-12.83467247 15.13194649 -9.8754192 16.81961201 -6.9375 18.625 C-7.00710937 17.30435547 -7.00710937 17.30435547 -7.078125 15.95703125 C-7.13226563 14.21486328 -7.13226563 14.21486328 -7.1875 12.4375 C-7.23390625 11.28894531 -7.2803125 10.14039063 -7.328125 8.95703125 C-6.75463048 4.06512301 -4.93744854 1.05052097 0 0 Z " fill="#3E6782" transform="translate(148.9375,176.375)"/>
<path d="M0 0 C3.77337835 0.62889639 4.72570865 1.44817315 7 4.5 C7.2911521 7.23682971 7.38322418 9.53940039 7.25 12.25 C7.23195312 12.94738281 7.21390625 13.64476562 7.1953125 14.36328125 C7.14838554 16.07611539 7.07664605 17.78823824 7 19.5 C7.80824219 18.9946875 8.61648437 18.489375 9.44921875 17.96875 C11.05216797 16.99421875 11.05216797 16.99421875 12.6875 16 C13.74324219 15.3503125 14.79898438 14.700625 15.88671875 14.03125 C19.00530749 12.49738954 20.59946217 12.02179937 24 12.5 C26.3125 14.0625 26.3125 14.0625 28 16.5 C28.5625 20 28.5625 20 28 23.5 C24.6628461 27.03940565 20.24042878 29.17192145 16 31.5 C19.53115795 34.40801243 23.18191312 36.98353365 27 39.5 C28 40.5 28 40.5 28.3125 43.8125 C28 47.5 28 47.5 26.375 49.9375 C23.11106508 52.0848256 21.87951466 52.21842864 18 51.5 C14.52849396 49.7018846 11.25540223 47.66169002 8 45.5 C7.96132812 46.94632813 7.96132812 46.94632813 7.921875 48.421875 C7.83679688 50.31679687 7.83679688 50.31679687 7.75 52.25 C7.70359375 53.50296875 7.6571875 54.7559375 7.609375 56.046875 C6.92200682 59.94196136 6.14532736 61.18118202 3 63.5 C0 64 0 64 -3 63.5 C-6.14532736 61.18118202 -6.92200682 59.94196136 -7.609375 56.046875 C-7.65578125 54.79390625 -7.7021875 53.5409375 -7.75 52.25 C-7.80671875 50.98671875 -7.8634375 49.7234375 -7.921875 48.421875 C-7.94765625 47.45765625 -7.9734375 46.4934375 -8 45.5 C-8.73605469 45.933125 -9.47210938 46.36625 -10.23046875 46.8125 C-11.20628906 47.369375 -12.18210937 47.92625 -13.1875 48.5 C-14.15042969 49.056875 -15.11335938 49.61375 -16.10546875 50.1875 C-19.08533919 51.53869631 -20.78090301 51.90238712 -24 51.5 C-26.3125 49.9375 -26.3125 49.9375 -28 47.5 C-28.5625 44 -28.5625 44 -28 40.5 C-24.6628461 36.96059435 -20.24042878 34.82807855 -16 32.5 C-19.53115795 29.59198757 -23.18191312 27.01646635 -27 24.5 C-28 23.5 -28 23.5 -28.3125 20.1875 C-28 16.5 -28 16.5 -26.4375 14 C-24 12.5 -24 12.5 -20.8125 12.4375 C-16.05977053 13.76203116 -12.18387559 15.92895627 -8 18.5 C-7.97421875 17.53578125 -7.9484375 16.5715625 -7.921875 15.578125 C-7.86515625 14.31484375 -7.8084375 13.0515625 -7.75 11.75 C-7.70359375 10.49703125 -7.6571875 9.2440625 -7.609375 7.953125 C-6.7403453 3.02862334 -4.9763564 0.82939273 0 0 Z " fill="#3C6683" transform="translate(72,176.5)"/>
<path d="M0 0 C3.77337835 0.62889639 4.72570865 1.44817315 7 4.5 C7.2911521 7.23682971 7.38322418 9.53940039 7.25 12.25 C7.23195312 12.94738281 7.21390625 13.64476562 7.1953125 14.36328125 C7.14838554 16.07611539 7.07664605 17.78823824 7 19.5 C7.80824219 18.9946875 8.61648437 18.489375 9.44921875 17.96875 C11.05216797 16.99421875 11.05216797 16.99421875 12.6875 16 C13.74324219 15.3503125 14.79898438 14.700625 15.88671875 14.03125 C19.00530749 12.49738954 20.59946217 12.02179937 24 12.5 C26.3125 14.0625 26.3125 14.0625 28 16.5 C28.5625 20 28.5625 20 28 23.5 C24.6628461 27.03940565 20.24042878 29.17192145 16 31.5 C19.53115795 34.40801243 23.18191312 36.98353365 27 39.5 C28 40.5 28 40.5 28.3125 43.8125 C28 47.5 28 47.5 26.4375 50 C23.74150666 51.65907283 22.18270308 51.88995945 19.08203125 51.26171875 C14.71735592 49.66488631 10.865711 47.04343561 7 44.5 C7.04640625 45.53640625 7.0928125 46.5728125 7.140625 47.640625 C7.17815275 49.01038779 7.21455184 50.38018182 7.25 51.75 C7.30027344 52.77287109 7.30027344 52.77287109 7.3515625 53.81640625 C7.41881901 57.28011666 7.26803947 59.1403231 5.171875 61.953125 C2.2172704 64.05748367 0.55166708 64.09194451 -3 63.5 C-6.14532736 61.18118202 -6.92200682 59.94196136 -7.609375 56.046875 C-7.65578125 54.79390625 -7.7021875 53.5409375 -7.75 52.25 C-7.80671875 50.98671875 -7.8634375 49.7234375 -7.921875 48.421875 C-7.94765625 47.45765625 -7.9734375 46.4934375 -8 45.5 C-8.73605469 45.933125 -9.47210938 46.36625 -10.23046875 46.8125 C-11.20628906 47.369375 -12.18210938 47.92625 -13.1875 48.5 C-14.15042969 49.056875 -15.11335937 49.61375 -16.10546875 50.1875 C-19.08550364 51.53877088 -20.78070152 51.90792481 -24 51.5 C-26.99948609 49.39225302 -27.87017778 48.17796049 -28.5625 44.5625 C-27.79862519 40.40362605 -26.2654981 39.14018995 -23 36.5 C-20.70925441 35.04698575 -18.4015483 33.77140792 -16 32.5 C-18.6773281 30.29514157 -21.34397283 28.27509468 -24.25 26.375 C-27 24.5 -27 24.5 -28 22.5 C-28.38750052 18.93499524 -28.39435894 17.11519994 -26.4375 14.0625 C-24 12.5 -24 12.5 -20.8125 12.4375 C-16.05977053 13.76203116 -12.18387559 15.92895627 -8 18.5 C-7.97421875 17.53578125 -7.9484375 16.5715625 -7.921875 15.578125 C-7.86515625 14.31484375 -7.8084375 13.0515625 -7.75 11.75 C-7.70359375 10.49703125 -7.6571875 9.2440625 -7.609375 7.953125 C-6.7403453 3.02862334 -4.9763564 0.82939273 0 0 Z " fill="#3C6683" transform="translate(227,176.5)"/>
<path d="M0 0 C9.57 0 19.14 0 29 0 C29.11608691 4.3210127 29.21518801 8.6364214 29.2746582 12.95776367 C29.29949426 14.42116823 29.33337629 15.88445296 29.37719727 17.34741211 C29.79142334 31.55292973 27.05390042 43.3177308 17 54 C9.26883245 61.95665994 -0.57759526 67.55929028 -11.82397461 68.22705078 C-13.18347212 68.22673969 -14.54300022 68.21577597 -15.90234375 68.1953125 C-16.6249086 68.1924826 -17.34747345 68.18965271 -18.0919342 68.18673706 C-20.37396616 68.17564386 -22.65558897 68.15056088 -24.9375 68.125 C-26.49543699 68.11495611 -28.05338021 68.10583274 -29.61132812 68.09765625 C-33.40770699 68.07574033 -37.2037844 68.04128738 -41 68 C-41 67.67 -41 67.34 -41 67 C-40.23816406 66.84144531 -39.47632813 66.68289063 -38.69140625 66.51953125 C-26.68980801 63.80755961 -16.68736744 58.68228282 -9.20703125 48.578125 C-1.78891739 36.78240814 -0.93487389 25.11781833 -0.4375 11.5 C-0.293125 7.705 -0.14875 3.91 0 0 Z " fill="#345B77" transform="translate(384,444)"/>
<path d="M0 0 C18.10444609 7.84704542 31.7006345 20.66924662 39.5234375 39.07421875 C46.39948127 56.52380152 45.76227343 75.64324526 38.45703125 92.76953125 C30.84968947 108.83721195 18.30160358 122.95456416 1.375 129.375 C0.59125 129.58125 -0.1925 129.7875 -1 130 C0.5805394 126.43751436 2.76697935 123.66627379 5.1875 120.625 C15.16709638 107.600781 22.66770776 90.61461176 23 74 C23.03649658 72.95634277 23.03649658 72.95634277 23.07373047 71.89160156 C23.93746722 45.70052827 17.6083888 24.07744035 1.03125 3.48828125 C0 2 0 2 0 0 Z " fill="#E6CDD3" transform="translate(439,235)"/>
<path d="M0 0 C6.27 1.32 12.54 2.64 19 4 C24.445 4.495 24.445 4.495 30 5 C30 29.42 30 53.84 30 79 C29.67 79 29.34 79 29 79 C29 71.08 29 63.16 29 55 C-75.61 55 -180.22 55 -288 55 C-288 54.67 -288 54.34 -288 54 C-192.96 54 -97.92 54 0 54 C0 36.18 0 18.36 0 0 Z " fill="#3681DA" transform="translate(384,389)"/>
<path d="M0 0 C3 0.5 3 0.5 5.16308594 1.85058594 C8.09779994 6.08337652 7.49139274 10.36668936 7.390625 15.390625 C7.38496521 16.45037537 7.37930542 17.51012573 7.37347412 18.60198975 C7.3510924 21.98512028 7.30089098 25.36718984 7.25 28.75 C7.2299374 31.04425553 7.21168621 33.33852767 7.1953125 35.6328125 C7.1512218 41.25557003 7.08429136 46.87770921 7 52.5 C7.74040527 52.78302979 8.48081055 53.06605957 9.24365234 53.35766602 C13.25891614 55.02174213 16.88947713 57.2286968 20.625 59.4375 C21.7696875 60.10168945 21.7696875 60.10168945 22.9375 60.77929688 C23.67226563 61.21177734 24.40703125 61.64425781 25.1640625 62.08984375 C25.82873535 62.48034912 26.4934082 62.87085449 27.17822266 63.27319336 C29.0634696 64.54274119 30.53755769 65.75887841 32 67.5 C32.54068562 71.13031776 32.46379841 72.82214079 30.375 75.875 C27.28915122 77.98637021 25.69915658 77.82382339 22 77.5 C19.08740234 76.29418945 19.08740234 76.29418945 16.0859375 74.61328125 C14.99539063 74.00419922 13.90484375 73.39511719 12.78125 72.76757812 C11.09515625 71.79981445 11.09515625 71.79981445 9.375 70.8125 C7.67730469 69.87374023 7.67730469 69.87374023 5.9453125 68.91601562 C-4.51126398 63.00012076 -4.51126398 63.00012076 -7 58.5 C-7.58816685 54.44576339 -7.56023286 50.43059111 -7.53125 46.33984375 C-7.5350769 45.15781876 -7.53890381 43.97579376 -7.54284668 42.75794983 C-7.54556561 40.26237129 -7.53820588 37.76676424 -7.52148438 35.27124023 C-7.5000575 31.44776054 -7.52129863 27.62615601 -7.546875 23.80273438 C-7.5442321 21.37760001 -7.5391079 18.95246682 -7.53125 16.52734375 C-7.53934692 15.38249008 -7.54744385 14.23763641 -7.55578613 13.05809021 C-7.54317749 11.99341019 -7.53056885 10.92873016 -7.51757812 9.83178711 C-7.51439575 8.89644638 -7.51121338 7.96110565 -7.50793457 6.99742126 C-6.62171856 2.64005943 -4.29395148 0.71565858 0 0 Z " fill="#3B6684" transform="translate(413,243.5)"/>
<path d="M0 0 C1.07245972 -0.0038269 2.14491943 -0.00765381 3.24987793 -0.01159668 C5.51604146 -0.01431716 7.78223631 -0.00694653 10.04833984 0.00976562 C13.51861528 0.03117206 16.98682027 0.00996725 20.45703125 -0.015625 C22.65885874 -0.01298175 24.86068494 -0.00785683 27.0625 0 C28.10112183 -0.00809692 29.13974365 -0.01619385 30.20983887 -0.02453613 C37.35538918 0.06855678 37.35538918 0.06855678 40.68164062 2.34570312 C42.69976826 5.61384325 42.63448292 7.77780074 42.03125 11.53125 C39.8723723 14.05031585 38.1078365 15.35236776 34.79638672 15.90258789 C32.00226615 16.06171303 29.23609299 16.08546832 26.4375 16.0625 C25.41321899 16.0663269 24.38893799 16.07015381 23.33361816 16.07409668 C21.1717836 16.0768141 19.00991606 16.06946486 16.84814453 16.05273438 C13.5425473 16.03132318 10.23912353 16.05254269 6.93359375 16.078125 C4.83072438 16.07548169 2.72785636 16.07035666 0.625 16.0625 C-0.36157593 16.07059692 -1.34815186 16.07869385 -2.36462402 16.08703613 C-6.69344649 16.02799559 -9.29453757 15.92247008 -13.09570312 13.71679688 C-14.96875 11.53125 -14.96875 11.53125 -15.53125 8.03125 C-14.96875 4.53125 -14.96875 4.53125 -13.61914062 2.34570312 C-9.37062025 -0.56282704 -5.03026241 -0.03921509 0 0 Z " fill="#E2F0FA" transform="translate(240.96875,26.46875)"/>
<path d="M0 0 C1.51672302 -0.01418472 1.51672302 -0.01418472 3.06408691 -0.02865601 C4.7000885 -0.01954697 4.7000885 -0.01954697 6.36914062 -0.01025391 C7.48977905 -0.01312408 8.61041748 -0.01599426 9.76501465 -0.01895142 C12.13550318 -0.02099387 14.5060085 -0.0154514 16.87646484 -0.00292969 C20.51112446 0.0131206 24.14467197 -0.00277309 27.77929688 -0.02197266 C30.08008059 -0.01999026 32.38086361 -0.01614665 34.68164062 -0.01025391 C35.77230835 -0.0163266 36.86297607 -0.02239929 37.98669434 -0.02865601 C38.99784302 -0.01919952 40.0089917 -0.00974304 41.05078125 0 C42.38622986 0.00358017 42.38622986 0.00358017 43.74865723 0.00723267 C46.51273025 0.46972695 47.40056184 1.130014 49.02539062 3.38818359 C49.49261782 7.05925443 49.64499775 9.37715072 47.68359375 12.57763672 C43.42703194 15.47685259 39.08936533 14.95866788 34.05664062 14.91943359 C32.44795105 14.92517395 32.44795105 14.92517395 30.8067627 14.93103027 C28.54059917 14.93375076 26.27440432 14.92638012 24.00830078 14.90966797 C20.53802535 14.88826153 17.06982036 14.90946634 13.59960938 14.93505859 C11.39778188 14.93241534 9.19595568 14.92729043 6.99414062 14.91943359 C5.9555188 14.92753052 4.91689697 14.93562744 3.84680176 14.94396973 C-3.2952265 14.8509227 -3.2952265 14.8509227 -6.6328125 12.57763672 C-8.5942165 9.37715072 -8.44183657 7.05925443 -7.97460938 3.38818359 C-5.6845789 0.20552382 -3.80671287 0.01020532 0 0 Z " fill="#E7F3FD" transform="translate(233.974609375,470.61181640625)"/>
<path d="M0 0 C6.27 0 12.54 0 19 0 C19 11.55 19 23.1 19 35 C16.69 33.68 14.38 32.36 12 31 C10.90816406 30.47664063 9.81632813 29.95328125 8.69140625 29.4140625 C5.12310903 27.37376272 2.06325551 25.60525756 0 22 C-1.51105534 14.78234329 -0.68299917 7.27900039 0 0 Z " fill="#EA9C2D" transform="translate(207,263)"/>
</svg>
